<?xml version="1.0" encoding="UTF-8"?><svg id="a" xmlns="http://www.w3.org/2000/svg" viewBox="0 0 551.33 248.89"><defs><style>.l{fill:#fff;}.m{fill:#00c0f3;}.n{fill:#414042;}</style></defs><rect class="l" width="551.33" height="248.89"/><g id="b"><g id="c"><g><path class="n" d="M158.8,65.71c0-1.75,1.39-3.19,3.19-3.19h.67c1.39,0,2.31,.72,2.93,1.7l10.9,17.07,10.95-17.12c.67-1.08,1.59-1.65,2.88-1.65h.67c1.8,0,3.19,1.44,3.19,3.19v30.14c0,1.75-1.39,3.14-3.19,3.14-1.7,0-3.14-1.44-3.14-3.14v-21.6l-8.79,13.22c-.67,1.03-1.49,1.65-2.67,1.65s-1.95-.62-2.62-1.65l-8.74-13.11v21.55c0,1.75-1.39,3.09-3.14,3.09s-3.09-1.34-3.09-3.09v-30.19Z"/><path class="n" d="M200.92,90.9v-.1c0-5.86,4.58-8.74,11.21-8.74,3.03,0,5.19,.46,7.3,1.13v-.67c0-3.86-2.37-5.91-6.74-5.91-2.37,0-4.32,.41-6.02,1.08-.36,.1-.67,.15-.98,.15-1.44,0-2.62-1.13-2.62-2.57,0-1.13,.77-2.11,1.7-2.47,2.57-.98,5.19-1.59,8.74-1.59,4.06,0,7.1,1.08,9,3.03,2.01,1.95,2.93,4.83,2.93,8.38v13.37c0,1.7-1.34,2.98-3.03,2.98-1.8,0-3.03-1.23-3.03-2.62v-1.03c-1.85,2.21-4.68,3.96-8.85,3.96-5.09,0-9.62-2.93-9.62-8.38Zm18.62-1.95v-1.85c-1.59-.62-3.7-1.08-6.17-1.08-4.01,0-6.38,1.7-6.38,4.53v.1c0,2.62,2.31,4.11,5.3,4.11,4.11,0,7.25-2.37,7.25-5.81Z"/></g><g id="d"><path class="n" d="M158.8,121.09c0-1.75,1.39-3.19,3.19-3.19h.67c1.39,0,2.31,.72,2.93,1.7l10.9,17.07,10.95-17.12c.67-1.08,1.59-1.65,2.88-1.65h.67c1.8,0,3.19,1.44,3.19,3.19v30.14c0,1.75-1.39,3.14-3.19,3.14-1.7,0-3.14-1.44-3.14-3.14v-21.6l-8.79,13.22c-.67,1.03-1.49,1.65-2.67,1.65s-1.95-.62-2.62-1.65l-8.74-13.11v21.55c0,1.75-1.39,3.09-3.14,3.09s-3.09-1.34-3.09-3.09v-30.19Z"/><path class="n" d="M236.5,119.39c0-1.75,1.34-3.09,3.09-3.09s3.14,1.34,3.14,3.09v12.09c2.01-2.83,4.83-5.09,9.26-5.09,6.38,0,12.6,5.04,12.6,14.09v.1c0,9-6.17,14.09-12.6,14.09-4.53,0-7.35-2.26-9.26-4.78v1.39c0,1.7-1.39,3.09-3.14,3.09s-3.09-1.39-3.09-3.09v-31.88Zm21.75,21.19v-.1c0-5.25-3.55-8.69-7.77-8.69s-7.92,3.5-7.92,8.69v.1c0,5.19,3.7,8.69,7.92,8.69s7.77-3.34,7.77-8.69Z"/><g><path class="n" d="M271.37,129.78c0-1.75,1.34-3.14,3.09-3.14s3.14,1.39,3.14,3.14v21.5c0,1.75-1.39,3.09-3.14,3.09s-3.09-1.34-3.09-3.09v-21.5Z"/><circle class="n" cx="274.48" cy="119.93" r="3.11"/></g><path class="n" d="M284.84,136.2v-.1c0-10.23,7.66-18.62,18.57-18.62,5.55,0,9.21,1.65,12.34,4.06,.67,.51,1.23,1.39,1.23,2.52,0,1.75-1.39,3.09-3.14,3.09-.87,0-1.49-.31-1.9-.62-2.47-2.01-5.14-3.24-8.59-3.24-6.84,0-11.88,5.66-11.88,12.7v.1c0,7.05,4.99,12.75,11.88,12.75,3.81,0,6.38-1.23,9-3.45,.46-.41,1.13-.72,1.9-.72,1.59,0,2.98,1.34,2.98,2.93,0,.98-.46,1.75-1.03,2.26-3.39,2.98-7.25,4.83-13.06,4.83-10.49,0-18.31-8.18-18.31-18.51Z"/><path class="n" d="M324.03,119.39c0-1.7,1.34-3.09,3.09-3.09s3.14,1.39,3.14,3.09v31.88c0,1.75-1.39,3.09-3.14,3.09s-3.09-1.34-3.09-3.09v-31.88Z"/><g><path class="n" d="M338.74,129.78c0-1.75,1.34-3.14,3.09-3.14s3.14,1.39,3.14,3.14v21.5c0,1.75-1.39,3.09-3.14,3.09s-3.09-1.34-3.09-3.09v-21.5Z"/><circle class="n" cx="341.84" cy="119.93" r="3.11"/></g><path class="n" d="M353.08,129.78c0-1.75,1.34-3.14,3.09-3.14s3.14,1.39,3.14,3.14v1.34c1.75-2.52,4.27-4.73,8.49-4.73,6.12,0,9.67,4.11,9.67,10.39v14.5c0,1.75-1.34,3.09-3.09,3.09s-3.14-1.34-3.14-3.09v-12.6c0-4.22-2.11-6.63-5.81-6.63s-6.12,2.52-6.12,6.74v12.5c0,1.75-1.39,3.09-3.14,3.09s-3.09-1.34-3.09-3.09v-21.5Z"/><g><path class="n" d="M385.33,129.78c0-1.75,1.34-3.14,3.09-3.14s3.14,1.39,3.14,3.14v21.5c0,1.75-1.39,3.09-3.14,3.09s-3.09-1.34-3.09-3.09v-21.5Z"/><circle class="n" cx="388.46" cy="119.93" r="3.11"/></g><path class="n" d="M426.36,159.5c0,1.75-1.39,3.09-3.09,3.09s-3.14-1.34-3.14-3.09v-9.92c-2.01,2.83-4.83,5.09-9.26,5.09-6.38,0-12.6-5.09-12.6-14.09v-.1c0-9,6.12-14.09,12.6-14.09,4.47,0,7.3,2.21,9.26,4.78v-1.44c0-1.7,1.39-3.09,3.09-3.09s3.14,1.39,3.14,3.14v29.72Zm-21.81-19.03v.1c0,5.25,3.6,8.69,7.82,8.69s7.87-3.5,7.87-8.69v-.1c0-5.25-3.7-8.69-7.87-8.69s-7.82,3.29-7.82,8.69Z"/><path class="n" d="M458.3,151.27c0,1.7-1.39,3.09-3.14,3.09s-3.14-1.34-3.14-3.09v-1.39c-1.75,2.57-4.27,4.78-8.49,4.78-6.12,0-9.67-4.11-9.67-10.44v-14.45c0-1.75,1.39-3.14,3.09-3.14s3.14,1.39,3.14,3.14v12.6c0,4.22,2.11,6.58,5.81,6.58s6.12-2.47,6.12-6.69v-12.5c0-1.75,1.39-3.14,3.14-3.14s3.14,1.39,3.14,3.14v21.5Z"/><path class="n" d="M478.51,154.72c-7.87,0-13.94-5.71-13.94-14.09v-.1c0-7.76,5.5-14.14,13.27-14.14,8.64,0,12.91,7.1,12.91,13.37,0,1.75-1.34,2.98-2.93,2.98h-17.02c.67,4.42,3.81,6.89,7.82,6.89,2.62,0,4.68-.93,6.43-2.37,.46-.36,.87-.57,1.59-.57,1.39,0,2.47,1.08,2.47,2.52,0,.77-.36,1.44-.82,1.9-2.47,2.21-5.55,3.6-9.77,3.6Zm6.17-16.1c-.41-4.01-2.78-7.15-6.89-7.15-3.81,0-6.48,2.93-7.05,7.15h13.94Z"/></g><g id="e"><path class="n" d="M236.66,183.19c-.08-.06-.15-.17-.15-.31,0-.21,.18-.4,.4-.4,.11,0,.2,.05,.26,.09,1.07,.97,2.15,1.4,3.62,1.4,1.61,0,2.71-.9,2.71-2.13v-.03c0-1.14-.6-1.79-3.04-2.29-2.58-.52-3.62-1.39-3.62-3.02v-.03c0-1.59,1.46-2.82,3.45-2.82,1.44,0,2.44,.37,3.42,1.1,.08,.06,.17,.17,.17,.32,0,.21-.18,.4-.4,.4-.09,0-.18-.03-.26-.09-.94-.72-1.87-1.01-2.96-1.01-1.58,0-2.62,.9-2.62,2.02v.03c0,1.13,.58,1.83,3.13,2.35,2.48,.51,3.53,1.4,3.53,2.96v.03c0,1.73-1.49,2.93-3.56,2.93-1.61,0-2.87-.51-4.08-1.5Z"/><path class="n" d="M246.44,180.66v-.03c0-2.19,1.7-4.09,4.03-4.09s4,1.87,4,4.06v.03c0,2.19-1.7,4.09-4.03,4.09s-4-1.87-4-4.06Zm7.22,0v-.03c0-1.89-1.41-3.39-3.22-3.39s-3.19,1.52-3.19,3.36v.03c0,1.89,1.41,3.39,3.22,3.39s3.19-1.52,3.19-3.36Z"/><g><path class="n" d="M257.13,177.04c0-.21,.15-.38,.37-.38s.38,.15,.38,.38v7.18c0,.23-.15,.38-.37,.38s-.38-.15-.38-.38v-7.18Z"/><circle class="n" cx="257.51" cy="174.16" r=".47"/></g><path class="n" d="M261.07,177.04c0-.21,.15-.38,.37-.38s.38,.15,.38,.38v1.14c.52-.92,1.4-1.64,2.82-1.64,1.98,0,3.13,1.35,3.13,3.22v4.46c0,.23-.15,.38-.37,.38s-.38-.15-.38-.38v-4.32c0-1.61-.9-2.67-2.48-2.67s-2.71,1.17-2.71,2.79v4.2c0,.23-.15,.38-.37,.38s-.38-.15-.38-.38v-7.18Z"/><path class="n" d="M270.2,183.68c-.06-.05-.14-.17-.14-.29,0-.2,.17-.37,.37-.37,.09,0,.18,.03,.25,.08,.81,.58,1.67,.89,2.61,.89,1.06,0,1.89-.58,1.89-1.49v-.03c0-.92-.98-1.26-2.07-1.56-1.27-.37-2.68-.75-2.68-2.15v-.03c0-1.26,1.06-2.16,2.58-2.16,.84,0,1.78,.28,2.53,.71,.09,.06,.2,.17,.2,.34,0,.2-.17,.37-.37,.37-.09,0-.17-.03-.21-.06-.67-.4-1.43-.64-2.18-.64-1.07,0-1.78,.58-1.78,1.36v.03c0,.87,1.06,1.2,2.18,1.52,1.26,.35,2.58,.81,2.58,2.19v.03c0,1.4-1.2,2.29-2.7,2.29-1.06,0-2.24-.41-3.04-1.01Z"/><path class="n" d="M283.39,177.04c0-.23,.15-.38,.37-.38s.38,.15,.38,.38v1.43c.67-1.03,1.67-1.93,3.22-1.93,1.89,0,3.8,1.52,3.8,4.06v.03c0,2.55-1.92,4.09-3.8,4.09-1.56,0-2.58-.89-3.22-1.87v3.82c0,.23-.15,.38-.37,.38s-.38-.15-.38-.38v-9.63Zm6.96,3.62v-.03c0-2.05-1.43-3.37-3.07-3.37s-3.19,1.36-3.19,3.36v.03c0,2.01,1.56,3.36,3.19,3.36s3.07-1.24,3.07-3.34Z"/><path class="n" d="M297.04,184.72c-2.05,0-3.83-1.64-3.83-4.08v-.03c0-2.27,1.59-4.08,3.71-4.08s3.59,1.81,3.59,4.05c0,.18-.18,.35-.37,.35h-6.13c.14,1.95,1.53,3.08,3.07,3.08,1.12,0,1.9-.46,2.53-1.07,.06-.06,.14-.11,.24-.11,.2,0,.37,.15,.37,.35,0,.08-.03,.17-.12,.26-.77,.77-1.64,1.27-3.05,1.27Zm2.65-4.46c-.11-1.58-1.01-3.04-2.81-3.04-1.55,0-2.74,1.3-2.88,3.04h5.69Zm-2.99-4.94c0-.06,.03-.12,.06-.17l.95-1.43c.12-.18,.24-.28,.43-.28,.29,0,.64,.2,.64,.35,0,.09-.08,.18-.17,.28l-1.23,1.18c-.18,.17-.29,.2-.49,.2-.11,0-.2-.06-.2-.14Z"/><path class="n" d="M310.19,184.22c0,.23-.15,.38-.37,.38s-.38-.15-.38-.38v-1.43c-.67,1.03-1.67,1.93-3.22,1.93-1.89,0-3.8-1.52-3.8-4.06v-.03c0-2.55,1.92-4.09,3.8-4.09,1.56,0,2.58,.89,3.22,1.87v-4.74c0-.23,.15-.38,.37-.38s.38,.15,.38,.38v10.55Zm-6.96-3.62v.03c0,2.06,1.43,3.37,3.07,3.37s3.19-1.36,3.19-3.36v-.03c0-2.01-1.56-3.36-3.19-3.36s-3.07,1.24-3.07,3.34Z"/><g><path class="n" d="M313.38,177.04c0-.21,.15-.38,.37-.38s.38,.15,.38,.38v7.18c0,.23-.15,.38-.37,.38s-.38-.15-.38-.38v-7.18Z"/><circle class="n" cx="313.76" cy="174.16" r=".47"/></g><path class="n" d="M316.68,182.27v-.03c0-1.63,1.4-2.55,3.42-2.55,1.09,0,1.84,.14,2.59,.34v-.34c0-1.58-.97-2.39-2.58-2.39-.86,0-1.58,.21-2.22,.52-.06,.03-.12,.05-.17,.05-.18,0-.35-.17-.35-.35s.14-.31,.22-.34c.8-.35,1.58-.58,2.58-.58,1.06,0,1.9,.29,2.47,.86,.52,.52,.8,1.24,.8,2.21v4.55c0,.23-.15,.38-.37,.38s-.37-.15-.37-.38v-.98c-.54,.75-1.5,1.49-2.99,1.49s-3.02-.83-3.02-2.45Zm6.03-.66v-.89c-.66-.17-1.53-.35-2.65-.35-1.66,0-2.58,.74-2.58,1.83v.03c0,1.13,1.07,1.79,2.27,1.79,1.6,0,2.96-.98,2.96-2.41Z"/><path class="n" d="M326.7,182.53v-5.12h-.84c-.18,0-.35-.17-.35-.35s.17-.34,.35-.34h.84v-2.18c0-.21,.15-.38,.37-.38s.38,.17,.38,.38v2.18h2.45c.18,0,.35,.17,.35,.35s-.17,.34-.35,.34h-2.45v5.05c0,1.12,.66,1.52,1.56,1.52,.54,0,.78-.15,.89-.15,.17,0,.34,.15,.34,.34,0,.15-.09,.26-.25,.32-.31,.11-.66,.2-1.1,.2-1.21,0-2.19-.66-2.19-2.15Z"/><path class="n" d="M332.65,177.04c0-.21,.15-.38,.37-.38s.38,.15,.38,.38v1.9c.67-1.52,2.04-2.35,3.14-2.35,.23,0,.4,.18,.4,.41,0,.21-.15,.4-.4,.41-1.66,.15-3.14,1.4-3.14,3.91v2.88c0,.21-.15,.38-.37,.38s-.38-.15-.38-.38v-7.18Z"/><g><path class="n" d="M339.12,177.04c0-.21,.15-.38,.37-.38s.38,.15,.38,.38v7.18c0,.23-.15,.38-.37,.38s-.38-.15-.38-.38v-7.18Z"/><circle class="n" cx="339.5" cy="174.16" r=".47"/></g><path class="n" d="M350.33,186.67c0,.23-.15,.38-.37,.38s-.38-.15-.38-.38v-3.88c-.67,1.03-1.67,1.93-3.22,1.93-1.89,0-3.8-1.52-3.8-4.06v-.03c0-2.55,1.92-4.09,3.8-4.09,1.56,0,2.58,.89,3.22,1.87v-1.36c0-.21,.15-.38,.37-.38s.38,.17,.38,.38v9.63Zm-6.96-6.07v.03c0,2.06,1.43,3.37,3.07,3.37s3.19-1.36,3.19-3.36v-.03c0-2.01-1.56-3.36-3.19-3.36s-3.07,1.24-3.07,3.34Z"/><path class="n" d="M359.96,184.22c0,.21-.15,.38-.37,.38s-.38-.15-.38-.38v-1.13c-.52,.92-1.39,1.64-2.82,1.64-1.98,0-3.13-1.35-3.13-3.22v-4.46c0-.23,.15-.38,.37-.38s.38,.15,.38,.38v4.33c0,1.61,.91,2.67,2.49,2.67s2.71-1.17,2.71-2.79v-4.2c0-.23,.15-.38,.37-.38s.38,.15,.38,.38v7.18Z"/><path class="n" d="M366.34,184.72c-2.05,0-3.83-1.64-3.83-4.08v-.03c0-2.27,1.59-4.08,3.71-4.08s3.59,1.81,3.59,4.05c0,.18-.18,.35-.37,.35h-6.13c.14,1.95,1.53,3.08,3.07,3.08,1.12,0,1.9-.46,2.53-1.07,.06-.06,.14-.11,.24-.11,.2,0,.37,.15,.37,.35,0,.08-.03,.17-.12,.26-.77,.77-1.64,1.27-3.05,1.27Zm2.65-4.46c-.11-1.58-1.01-3.04-2.81-3.04-1.55,0-2.74,1.3-2.88,3.04h5.69Z"/><path class="n" d="M371.72,183.68c-.06-.05-.14-.17-.14-.29,0-.2,.17-.37,.37-.37,.09,0,.18,.03,.25,.08,.81,.58,1.67,.89,2.61,.89,1.06,0,1.89-.58,1.89-1.49v-.03c0-.92-.98-1.26-2.07-1.56-1.27-.37-2.68-.75-2.68-2.15v-.03c0-1.26,1.06-2.16,2.58-2.16,.84,0,1.78,.28,2.53,.71,.09,.06,.2,.17,.2,.34,0,.2-.17,.37-.37,.37-.09,0-.17-.03-.21-.06-.67-.4-1.43-.64-2.18-.64-1.07,0-1.78,.58-1.78,1.36v.03c0,.87,1.06,1.2,2.18,1.52,1.26,.35,2.58,.81,2.58,2.19v.03c0,1.4-1.2,2.29-2.7,2.29-1.06,0-2.24-.41-3.04-1.01Z"/></g></g><g id="f"><g id="g"><path class="m" d="M139.43,155.05c-.17,0-.33-.02-.5-.07-.93-.28-1.45-1.25-1.18-2.18,.15-.49,14.47-49.7-2.54-81.12-2.12-3.92-5.65-6.78-9.92-8.06-4.27-1.27-8.79-.8-12.71,1.32-3.92,2.12-6.78,5.65-8.06,9.92s-.8,8.79,1.32,12.71c.46,.85,.14,1.91-.71,2.37-.85,.46-1.91,.14-2.37-.71-2.57-4.74-3.13-10.2-1.6-15.38s5-9.43,9.74-12c4.75-2.57,10.21-3.13,15.38-1.6,5.17,1.54,9.43,5,12,9.74,9.28,17.15,9.54,39.04,8.13,54.39-1.52,16.54-5.16,28.88-5.31,29.4-.23,.76-.92,1.25-1.68,1.25Z"/><path class="n" d="M106.27,87.56c-.59-.78-1.41-1.18-2.02-.87l-.63,.32-.63,.32c-.62,.31-.77,1.21-.48,2.15l1.1,3.06c.41,.8,1.24,1.19,1.85,.87l1.13-.58,1.13-.58c.62-.31,.78-1.22,.38-2.01l-1.84-2.68Z"/></g><g id="h"><path class="m" d="M154,190.07c-5.97,0-11.71-2.84-15.43-7.77-3.25-4.31-7.67-13.89-.74-29.7,.39-.88,1.42-1.29,2.31-.9,.89,.39,1.29,1.42,.9,2.31-6.21,14.17-2.46,22.49,.33,26.18,3.48,4.61,9.11,6.99,14.69,6.24,5.69-.77,10.32-4.69,12.71-10.74,2.48-6.27,6.9-10.03,12.14-10.31,5.24-.28,10.22,3.09,13.32,9.01,4.07,7.77,8.56,10.35,15.01,8.6,8.04-2.18,5.16-19.22,5.13-19.4-.17-.95,.46-1.86,1.41-2.04,.96-.18,1.86,.46,2.04,1.41,.15,.83,3.58,20.36-7.65,23.4-11.91,3.23-17.27-6.99-19.03-10.35-2.45-4.68-6.2-7.34-10.04-7.14-3.81,.2-7.12,3.16-9.07,8.1-2.87,7.26-8.51,11.97-15.49,12.92-.84,.12-1.69,.17-2.53,.17Z"/><path id="i" class="m" d="M216.08,115.97c-8.61,0-14.99,6.55-14.99,14.49-.07,12.48,14.11,32.82,14.99,32.82s15.06-20.35,14.99-32.82c0-7.94-6.38-14.49-14.99-14.49Zm0,22.02c-4.33,0-7.25-3.46-7.25-7.53s2.77-7.73,7.25-7.73,7.25,3.66,7.25,7.73-2.92,7.53-7.25,7.53Z"/></g><g id="j"><circle class="n" cx="139.43" cy="153.3" r="2.36"/><circle class="n" cx="144.17" cy="128.44" r="2.36"/><circle class="n" cx="120.51" cy="61.18" r="2.36"/><circle class="n" cx="144.81" cy="185.88" r="2.36"/><circle class="n" cx="208.45" cy="185.02" r="2.36"/><circle class="n" cx="181.44" cy="166.96" r="2.36"/><circle class="n" cx="216.08" cy="162.44" r="2.36"/></g><g id="k"><path class="n" d="M139.43,155.05c-.09,0-.17,0-.26-.02-.53-.08-13.23-2-28.83-7.64-14.48-5.23-34.19-14.77-45.81-30.52-6.61-8.96-4.7-21.63,4.26-28.24,8.96-6.61,21.63-4.7,28.24,4.26,.57,.78,.41,1.87-.37,2.45-.78,.57-1.87,.41-2.45-.37-2.65-3.59-6.53-5.93-10.94-6.6-4.41-.67-8.82,.43-12.4,3.07-7.41,5.47-8.99,15.94-3.52,23.35,21.31,28.88,71.84,36.7,72.35,36.77,.96,.14,1.62,1.03,1.47,1.99-.13,.87-.88,1.49-1.73,1.49Z"/><path class="n" d="M118.06,149.23c-1.35,0-2.59-.18-3.71-.54-.92-.3-1.42-1.28-1.13-2.2,.3-.92,1.29-1.42,2.2-1.13,3.58,1.16,9.76-.5,15.73-4.24,6.2-3.88,10.73-9.08,11.28-12.94,.13-.96,1.02-1.63,1.98-1.49,.96,.13,1.62,1.02,1.49,1.98-.84,5.95-7.21,11.86-12.89,15.42-5.34,3.34-10.66,5.14-14.95,5.14Z"/><path class="n" d="M97.19,92.5c-.72-.66-1.59-.92-2.14-.5l-.56,.43-.56,.43c-.55,.42-.54,1.32-.1,2.2l1.62,2.82c.54,.71,1.43,.95,1.98,.54l1.02-.77,1.02-.77c.55-.42,.56-1.33,.02-2.05l-2.28-2.32Z"/></g></g></g></svg>